<?xml version="1.0" encoding="utf-8"?>
<!-- Generator: Adobe Illustrator 19.1.0, SVG Export Plug-In . SVG Version: 6.00 Build 0)  -->
<svg version="1.1" id="Layer_1" xmlns="http://www.w3.org/2000/svg" xmlns:xlink="http://www.w3.org/1999/xlink" x="0px" y="0px"
	 width="1000px" height="1000px" viewBox="374 -392 1000 1000" style="enable-background:new 374 -392 1000 1000;"
	 xml:space="preserve">
<path d="M971.3,142.8c0.2,35-33.3,121.4-14.1,146.3c20.1,14.7,42.7,0.2,64.4-4.1c6.5,0.1,12.6,1.5,19.1,1.6c0.1-0.1,0.1-0.2,0.2-0.2
	c9.3-10.1,26.1-7.2,31.7,5.4c2.7,6,5.3,12.1,8.4,17.8c31.1,11.9,59.3,31,94,32.1c11.7-0.1,21.7,7.3,30.5,14.4
	c-84.6-4.2-98.3,29.1-151.6,53.8c-162,95.6-383.6,60.3-404,64.9c-67.2,22.9-55.3,57.9-99.7,35.3c-21.3-15-76.7-76.3-97.5-135.2
	c14-4.7,29.1-2.7,43.7,1.7c118.6,32.3,163.9-14.9,229.3-35.6c-1.3-4.1-2.6-7.9-3.9-11.7c-2.7-7.9-3.3-16.4-1.6-24.6
	c7.4-34.7-18.5-68.6-9-103.4c1.3-4.7,0-9.7-3.4-13.2l-0.1-0.1c-3-3-4.4-7.3-3.7-11.5c4.5-30.8,10.5-64-1.3-93.1
	c-21.3-57.2,5.8-148.5,27-302c1.6-11.5,10.3-20.9,21.7-23c5.3-1,10.8-1.4,16.3-1.1c10.6,0.5,22.8,6.5,23.9,17.1
	C800.8-129.5,952.6,41.5,971.3,142.8z"/>
</svg>
